<?xml version="1.0" encoding="utf-8"?>
<!-- Generator: Adobe Illustrator 15.1.0, SVG Export Plug-In  -->
<!DOCTYPE svg PUBLIC "-//W3C//DTD SVG 1.1//EN" "http://www.w3.org/Graphics/SVG/1.1/DTD/svg11.dtd" [
	<!ENTITY ns_flows "http://ns.adobe.com/Flows/1.0/">
]>
<svg version="1.1"
	 xmlns="http://www.w3.org/2000/svg" xmlns:xlink="http://www.w3.org/1999/xlink" xmlns:a="http://ns.adobe.com/AdobeSVGViewerExtensions/3.0/"
	 x="0px" y="0px" width="183px" height="40px" viewBox="0 0 183 40" overflow="visible" enable-background="new 0 0 183 40"
	 xml:space="preserve">
<defs>
</defs>
<path d="M0,15.08c0.026-0.747,0.193-1.446,0.5-2.1c0.306-0.653,0.713-1.226,1.22-1.72c0.506-0.493,1.106-0.88,1.8-1.16
	c0.693-0.28,1.426-0.42,2.2-0.42c1.013,0,1.973,0.227,2.88,0.68V9.84h3.8V30.92H8.6V30.4c-0.934,0.427-1.894,0.64-2.88,0.64
	c-0.773,0-1.507-0.14-2.2-0.42c-0.694-0.279-1.3-0.666-1.82-1.16c-0.52-0.492-0.934-1.072-1.24-1.74C0.153,27.053,0,26.346,0,25.6
	v-0.84v-3.041V18.36v-1.92V15.08z M3.68,25.44c0,0.533,0.2,0.994,0.6,1.38c0.4,0.388,0.88,0.58,1.44,0.58
	c0.267,0,0.546-0.054,0.84-0.16c0.293-0.106,0.56-0.246,0.8-0.42c0.24-0.173,0.44-0.38,0.6-0.62s0.24-0.492,0.24-0.76V14.96
	c0-0.266-0.08-0.52-0.24-0.76c-0.16-0.24-0.36-0.446-0.6-0.62c-0.24-0.173-0.507-0.307-0.8-0.4c-0.294-0.093-0.574-0.14-0.84-0.14
	c-0.56,0-1.04,0.187-1.44,0.56c-0.4,0.374-0.6,0.827-0.6,1.36V25.44z"/>
<path d="M28.835,9.84v3.36v0.56v11.12c0,0.854-0.16,1.647-0.48,2.381c-0.32,0.733-0.76,1.373-1.32,1.92s-1.214,0.98-1.96,1.3
	c-0.747,0.319-1.534,0.479-2.36,0.479c-0.854,0-1.647-0.16-2.38-0.479s-1.374-0.753-1.92-1.3c-0.547-0.547-0.98-1.187-1.3-1.92
	c-0.32-0.733-0.48-1.526-0.48-2.381V14.96V13.2V9.84h4v3.36v1.76v9.759c0,0.614,0.206,1.127,0.62,1.541s0.914,0.619,1.5,0.619
	c0.613,0,1.126-0.205,1.54-0.619c0.413-0.414,0.62-0.927,0.62-1.541V13.76V13.2V9.84H28.835z"/>
<path d="M39.871,13.16c-0.107-0.026-0.267-0.04-0.48-0.04c-0.48,0-0.967,0.14-1.46,0.42c-0.494,0.28-0.807,0.634-0.94,1.06v16.359
	h-3.92V9.88h3.92v0.52c0.906-0.453,1.866-0.68,2.88-0.68V13.16z"/>
<path d="M54.475,22.44v2.12v0.84c0,0.774-0.154,1.493-0.46,2.16c-0.307,0.667-0.707,1.247-1.2,1.739
	c-0.494,0.494-1.08,0.888-1.76,1.181c-0.68,0.294-1.394,0.44-2.14,0.44c-0.774,0-1.494-0.146-2.16-0.44
	c-0.667-0.293-1.247-0.687-1.74-1.181c-0.494-0.492-0.894-1.072-1.2-1.739s-0.46-1.386-0.46-2.16v-0.44V21.48v-3.36v-2.2V14.8
	c0.026-0.746,0.187-1.453,0.48-2.12c0.293-0.666,0.693-1.246,1.2-1.74c0.506-0.493,1.093-0.88,1.76-1.16
	c0.667-0.28,1.374-0.42,2.12-0.42c0.746,0,1.453,0.14,2.12,0.42c0.666,0.28,1.253,0.667,1.76,1.16c0.506,0.494,0.906,1.074,1.2,1.74
	c0.293,0.667,0.453,1.374,0.48,2.12v1.4v1.88v1.32h-3.56h-0.8h-3.12v5.88c0,0.533,0.193,0.994,0.58,1.381
	c0.386,0.387,0.846,0.579,1.38,0.579c0.533,0,0.993-0.192,1.38-0.579c0.386-0.387,0.58-0.848,0.58-1.381v-2.84H54.475z
	 M46.995,16.36h3.92v-1.68c0-0.533-0.194-0.993-0.58-1.38c-0.387-0.386-0.847-0.58-1.38-0.58c-0.534,0-0.994,0.194-1.38,0.58
	c-0.387,0.387-0.58,0.847-0.58,1.38V16.36z"/>
<path d="M58.611,30.92V0h3.84v30.92H58.611z"/>
<path d="M68.722,6.52c-0.614,0-1.12-0.207-1.52-0.62c-0.4-0.413-0.6-0.913-0.6-1.5c0-0.586,0.187-1.086,0.56-1.5
	c0.374-0.413,0.866-0.62,1.48-0.62c0.586,0,1.1,0.207,1.54,0.62c0.44,0.414,0.66,0.914,0.66,1.5c0,0.587-0.207,1.087-0.62,1.5
	C69.809,6.313,69.309,6.52,68.722,6.52z M66.762,9.84h3.88l-0.08,21.12h-3.88L66.762,9.84z"/>
<path fill="#FFFFFF" d="M74.722,15.08c0.026-0.747,0.193-1.446,0.5-2.1c0.307-0.653,0.713-1.226,1.22-1.72
	c0.507-0.493,1.106-0.88,1.799-1.16c0.693-0.28,1.428-0.42,2.201-0.42c1.014,0,1.973,0.227,2.879,0.68V9.84h3.801V30.92h-3.801V30.4
	c-0.934,0.427-1.893,0.64-2.879,0.64c-0.773,0-1.508-0.14-2.201-0.42c-0.693-0.279-1.299-0.666-1.819-1.16
	c-0.521-0.492-0.934-1.072-1.24-1.74c-0.307-0.666-0.46-1.373-0.46-2.119v-0.84v-3.041V18.36v-1.92V15.08z M78.401,25.44
	c0,0.533,0.201,0.994,0.602,1.38c0.398,0.388,0.879,0.58,1.439,0.58c0.266,0,0.547-0.054,0.84-0.16s0.561-0.246,0.801-0.42
	c0.238-0.173,0.439-0.38,0.6-0.62s0.24-0.492,0.24-0.76V14.96c0-0.266-0.08-0.52-0.24-0.76c-0.16-0.24-0.361-0.446-0.6-0.62
	c-0.24-0.173-0.508-0.307-0.801-0.4c-0.293-0.093-0.574-0.14-0.84-0.14c-0.561,0-1.041,0.187-1.439,0.56
	c-0.4,0.374-0.602,0.827-0.602,1.36V25.44z"/>
<path fill="#FFFFFF" d="M107.761,9.92v10.6v3.279v2.48v3.32v4.64v0.56c-0.053,0.747-0.238,1.447-0.559,2.101s-0.734,1.22-1.24,1.7
	c-0.508,0.479-1.1,0.86-1.779,1.14c-0.682,0.279-1.395,0.42-2.141,0.42c-0.135,0-0.268-0.006-0.4-0.02s-0.268-0.02-0.4-0.02V36.52
	c0.213,0.105,0.467,0.16,0.76,0.16c0.561,0,1.033-0.2,1.42-0.6c0.387-0.4,0.58-0.881,0.58-1.44V34.4h0.041v-4.319
	c-0.906,0.453-1.84,0.68-2.801,0.68c-0.773,0-1.5-0.141-2.18-0.42c-0.68-0.28-1.273-0.66-1.779-1.141
	c-0.508-0.48-0.908-1.046-1.201-1.699c-0.293-0.654-0.439-1.354-0.439-2.101h-0.039v-0.8v-3v-3.28v-1.88v-1.36h0.039
	c0-0.72,0.152-1.4,0.461-2.04c0.305-0.64,0.713-1.2,1.219-1.68s1.094-0.853,1.76-1.12c0.666-0.266,1.387-0.4,2.16-0.4
	c0.934,0,1.867,0.214,2.801,0.64V10V9.92H107.761z M103.642,15c0-0.266-0.074-0.513-0.221-0.74c-0.146-0.226-0.34-0.426-0.58-0.6
	c-0.238-0.173-0.506-0.313-0.799-0.42c-0.295-0.106-0.574-0.16-0.84-0.16c-0.535,0-0.994,0.187-1.381,0.56s-0.58,0.827-0.58,1.36
	v10.28c0,0.533,0.193,0.98,0.58,1.34c0.387,0.36,0.846,0.541,1.381,0.541c0.266,0,0.545-0.047,0.84-0.141
	c0.293-0.094,0.561-0.227,0.799-0.4c0.24-0.173,0.434-0.373,0.58-0.6s0.221-0.473,0.221-0.74V15z"/>
<path d="M123.249,16.16v1.92v3.4v3.08v0.84c0,0.774-0.154,1.493-0.459,2.16c-0.309,0.667-0.707,1.247-1.201,1.739
	c-0.494,0.494-1.08,0.888-1.76,1.181c-0.68,0.294-1.406,0.44-2.18,0.44s-1.494-0.146-2.16-0.44c-0.668-0.293-1.246-0.687-1.74-1.181
	c-0.494-0.492-0.895-1.072-1.199-1.739c-0.307-0.667-0.461-1.386-0.461-2.16v-0.44V21.48v-3.4v-2.2v-1.12
	c0.027-0.746,0.186-1.453,0.48-2.12c0.293-0.667,0.693-1.247,1.199-1.74c0.506-0.493,1.094-0.88,1.76-1.16
	c0.668-0.28,1.373-0.42,2.121-0.42c0.746,0,1.459,0.14,2.141,0.42c0.68,0.28,1.271,0.667,1.779,1.16
	c0.506,0.494,0.906,1.074,1.199,1.74s0.453,1.374,0.48,2.12V16.16z M119.649,14.64c0-0.533-0.193-0.993-0.58-1.38
	c-0.387-0.386-0.848-0.58-1.381-0.58s-0.992,0.194-1.379,0.58c-0.387,0.387-0.58,0.847-0.58,1.38v10.64
	c0,0.533,0.193,0.994,0.58,1.381s0.846,0.579,1.379,0.579s0.994-0.192,1.381-0.579s0.58-0.848,0.58-1.381V14.64z"/>
<path d="M127.253,24.36v-1.92v-3.4V16v-0.84c0-0.747,0.152-1.453,0.459-2.12c0.307-0.667,0.721-1.253,1.24-1.76
	c0.521-0.506,1.127-0.9,1.82-1.18c0.693-0.28,1.439-0.42,2.24-0.42c0.986,0,1.934,0.227,2.84,0.68V0.04h3.881v30.919h-3.881v-0.52
	c-0.906,0.453-1.854,0.68-2.84,0.68c-0.773,0-1.506-0.14-2.199-0.42c-0.695-0.279-1.301-0.666-1.82-1.16
	c-0.52-0.492-0.934-1.066-1.24-1.72s-0.475-1.353-0.5-2.101V24.36z M130.933,25.84c0,0.533,0.199,0.986,0.6,1.359
	c0.4,0.374,0.881,0.561,1.441,0.561c0.266,0,0.553-0.047,0.859-0.141c0.307-0.093,0.58-0.227,0.82-0.4
	c0.24-0.172,0.439-0.379,0.6-0.619s0.24-0.493,0.24-0.76V15.32c0-0.266-0.08-0.52-0.24-0.76c-0.16-0.24-0.359-0.446-0.6-0.62
	c-0.24-0.173-0.514-0.313-0.82-0.42c-0.307-0.106-0.594-0.16-0.859-0.16c-0.561,0-1.041,0.194-1.441,0.58
	c-0.4,0.387-0.6,0.847-0.6,1.38V25.84z"/>
<path d="M143.813,15.08c0.025-0.747,0.193-1.446,0.5-2.1c0.307-0.653,0.713-1.226,1.219-1.72c0.508-0.493,1.107-0.88,1.801-1.16
	c0.693-0.28,1.426-0.42,2.199-0.42c1.014,0,1.975,0.227,2.881,0.68V9.84h3.801V30.92h-3.801V30.4
	c-0.934,0.427-1.895,0.64-2.881,0.64c-0.773,0-1.506-0.14-2.199-0.42c-0.693-0.279-1.301-0.666-1.82-1.16
	c-0.52-0.492-0.934-1.072-1.24-1.74c-0.307-0.666-0.459-1.373-0.459-2.119v-0.84v-3.041V18.36v-1.92V15.08z M147.493,25.44
	c0,0.533,0.199,0.994,0.6,1.38c0.4,0.388,0.881,0.58,1.439,0.58c0.268,0,0.547-0.054,0.84-0.16c0.295-0.106,0.561-0.246,0.801-0.42
	c0.24-0.173,0.439-0.38,0.6-0.62s0.24-0.492,0.24-0.76V14.96c0-0.266-0.08-0.52-0.24-0.76c-0.16-0.24-0.359-0.446-0.6-0.62
	c-0.24-0.173-0.506-0.307-0.801-0.4c-0.293-0.093-0.572-0.14-0.84-0.14c-0.559,0-1.039,0.187-1.439,0.56s-0.6,0.827-0.6,1.36V25.44z
	"/>
<path d="M167.3,13.16c-0.105-0.026-0.266-0.04-0.48-0.04c-0.479,0-0.967,0.14-1.459,0.42c-0.494,0.28-0.807,0.634-0.939,1.06v16.359
	h-3.92V9.88h3.92v0.52c0.906-0.453,1.865-0.68,2.879-0.68V13.16z"/>
<path d="M170.628,24.36v-1.92v-3.4V16v-0.84c0-0.747,0.152-1.453,0.459-2.12c0.307-0.667,0.721-1.253,1.24-1.76
	c0.521-0.506,1.127-0.9,1.82-1.18c0.693-0.28,1.439-0.42,2.24-0.42c0.986,0,1.934,0.227,2.84,0.68V0.04h3.881v30.919h-3.881v-0.52
	c-0.906,0.453-1.854,0.68-2.84,0.68c-0.773,0-1.506-0.14-2.199-0.42c-0.695-0.279-1.301-0.666-1.82-1.16
	c-0.52-0.492-0.934-1.066-1.24-1.72s-0.475-1.353-0.5-2.101V24.36z M174.308,25.84c0,0.533,0.199,0.986,0.6,1.359
	c0.4,0.374,0.881,0.561,1.441,0.561c0.266,0,0.553-0.047,0.859-0.141c0.307-0.093,0.58-0.227,0.82-0.4
	c0.24-0.172,0.439-0.379,0.6-0.619s0.24-0.493,0.24-0.76V15.32c0-0.266-0.08-0.52-0.24-0.76c-0.16-0.24-0.359-0.446-0.6-0.62
	c-0.24-0.173-0.514-0.313-0.82-0.42c-0.307-0.106-0.594-0.16-0.859-0.16c-0.561,0-1.041,0.194-1.441,0.58
	c-0.4,0.387-0.6,0.847-0.6,1.38V25.84z"/>
</svg>
