<?xml version="1.0" encoding="utf-8"?>
<!-- Generator: Adobe Illustrator 15.1.0, SVG Export Plug-In  -->
<!DOCTYPE svg PUBLIC "-//W3C//DTD SVG 1.1//EN" "http://www.w3.org/Graphics/SVG/1.1/DTD/svg11.dtd" [
	<!ENTITY ns_flows "http://ns.adobe.com/Flows/1.0/">
]>
<svg version="1.1"
	 xmlns="http://www.w3.org/2000/svg" xmlns:xlink="http://www.w3.org/1999/xlink" xmlns:a="http://ns.adobe.com/AdobeSVGViewerExtensions/3.0/"
	 x="0px" y="0px" width="173px" height="41px" viewBox="-1.858 -1.039 173 41"
	 overflow="visible" enable-background="new -1.858 -1.039 173 41" xml:space="preserve">
<defs>
</defs>
<path fill="#6D6E71" d="M0,14.25c0.024-0.705,0.183-1.366,0.473-1.984c0.289-0.617,0.674-1.159,1.152-1.625
	c0.479-0.467,1.046-0.832,1.701-1.097s1.348-0.396,2.079-0.396c0.957,0,1.864,0.214,2.721,0.643V9.299h3.592v19.919H8.126v-0.491
	c-0.882,0.403-1.789,0.604-2.721,0.604c-0.731,0-1.424-0.132-2.079-0.396s-1.229-0.63-1.72-1.097
	c-0.492-0.466-0.883-1.014-1.172-1.644C0.145,25.564,0,24.896,0,24.19v-0.794v-2.872V17.35v-1.814V14.25z M3.478,24.039
	c0,0.505,0.189,0.939,0.566,1.305c0.379,0.365,0.832,0.548,1.361,0.548c0.252,0,0.516-0.05,0.793-0.151
	c0.277-0.101,0.529-0.232,0.756-0.396c0.228-0.164,0.416-0.359,0.567-0.586s0.228-0.466,0.228-0.719v-9.902
	c0-0.252-0.076-0.491-0.228-0.719c-0.151-0.227-0.34-0.421-0.567-0.585c-0.227-0.164-0.479-0.29-0.756-0.379
	c-0.277-0.088-0.541-0.132-0.793-0.132c-0.529,0-0.982,0.177-1.361,0.529c-0.377,0.353-0.566,0.781-0.566,1.285V24.039z"/>
<path fill="#6D6E71" d="M26.899,9.299v3.175v0.529v10.508c0,0.807-0.15,1.556-0.453,2.249s-0.719,1.298-1.247,1.813
	c-0.529,0.518-1.147,0.927-1.853,1.229c-0.705,0.303-1.449,0.454-2.23,0.454c-0.807,0-1.556-0.151-2.248-0.454
	c-0.693-0.302-1.299-0.711-1.814-1.229c-0.518-0.516-0.926-1.12-1.229-1.813s-0.453-1.442-0.453-2.249v-9.374v-1.663V9.299h3.779
	v3.175v1.663v9.223c0,0.58,0.195,1.064,0.586,1.455s0.863,0.586,1.418,0.586c0.578,0,1.063-0.195,1.455-0.586
	c0.391-0.391,0.586-0.875,0.586-1.455V13.003v-0.529V9.299H26.899z"/>
<path fill="#6D6E71" d="M36.98,12.436c-0.101-0.024-0.252-0.038-0.454-0.038c-0.453,0-0.913,0.133-1.379,0.397
	c-0.467,0.265-0.763,0.599-0.889,1.001v15.46h-3.703V9.336h3.703v0.491c0.856-0.428,1.764-0.643,2.722-0.643V12.436z"/>
<path fill="#6D6E71" d="M50.429,21.205v2.003v0.794c0,0.73-0.145,1.411-0.435,2.041s-0.668,1.178-1.134,1.644
	c-0.467,0.467-1.021,0.839-1.663,1.115c-0.643,0.277-1.317,0.416-2.022,0.416c-0.73,0-1.412-0.139-2.041-0.416
	c-0.631-0.276-1.178-0.648-1.645-1.115c-0.467-0.466-0.844-1.014-1.134-1.644s-0.435-1.311-0.435-2.041v-0.416v-3.288v-3.176v-2.078
	v-1.059c0.025-0.705,0.176-1.373,0.453-2.003s0.656-1.178,1.135-1.645c0.479-0.466,1.033-0.832,1.662-1.096
	c0.631-0.265,1.299-0.397,2.004-0.397s1.373,0.133,2.004,0.397c0.629,0.264,1.184,0.63,1.662,1.096
	c0.479,0.467,0.857,1.015,1.135,1.645c0.276,0.63,0.428,1.298,0.453,2.003v1.323v1.776v1.247h-3.363h-0.757H43.36v5.557
	c0,0.504,0.183,0.938,0.549,1.304c0.364,0.365,0.799,0.548,1.304,0.548c0.503,0,0.938-0.183,1.304-0.548s0.549-0.8,0.549-1.304
	v-2.684H50.429z M43.36,15.459h3.705v-1.587c0-0.504-0.184-0.938-0.549-1.304s-0.801-0.549-1.304-0.549
	c-0.505,0-0.939,0.184-1.304,0.549c-0.366,0.365-0.549,0.8-0.549,1.304V15.459z"/>
<path fill="#6D6E71" d="M53.985,29.218V0h3.629v29.218H53.985z"/>
<path fill="#6D6E71" d="M63.192,6.161c-0.58,0-1.059-0.194-1.437-0.586c-0.378-0.391-0.567-0.862-0.567-1.417
	s0.176-1.026,0.529-1.418c0.354-0.39,0.818-0.586,1.398-0.586c0.555,0,1.04,0.196,1.455,0.586c0.416,0.392,0.624,0.863,0.624,1.418
	S65,5.185,64.61,5.575C64.219,5.967,63.746,6.161,63.192,6.161z M61.341,9.299h3.666l-0.076,19.957h-3.666L61.341,9.299z"/>
<path fill="#008B3D" d="M68.515,14.25c0.024-0.705,0.182-1.366,0.473-1.984c0.289-0.617,0.674-1.159,1.152-1.625
	c0.479-0.467,1.045-0.832,1.701-1.097c0.654-0.265,1.348-0.396,2.078-0.396c0.957,0,1.865,0.214,2.722,0.643V9.299h3.591v19.919
	h-3.591v-0.491c-0.882,0.403-1.79,0.604-2.722,0.604c-0.73,0-1.424-0.132-2.078-0.396c-0.656-0.265-1.229-0.63-1.721-1.097
	c-0.491-0.466-0.882-1.014-1.172-1.644c-0.289-0.63-0.434-1.298-0.434-2.004v-0.794v-2.872V17.35v-1.814V14.25z M71.991,24.039
	c0,0.505,0.189,0.939,0.567,1.305s0.831,0.548,1.36,0.548c0.252,0,0.517-0.05,0.794-0.151c0.276-0.101,0.529-0.232,0.756-0.396
	c0.228-0.164,0.416-0.359,0.567-0.586c0.15-0.227,0.227-0.466,0.227-0.719v-9.902c0-0.252-0.076-0.491-0.227-0.719
	c-0.151-0.227-0.34-0.421-0.567-0.585c-0.227-0.164-0.479-0.29-0.756-0.379c-0.277-0.088-0.542-0.132-0.794-0.132
	c-0.529,0-0.982,0.177-1.36,0.529s-0.567,0.781-0.567,1.285V24.039z"/>
<path fill="#008B3D" d="M99.734,9.374v10.017v3.1v2.343v3.138v4.384v0.529c-0.051,0.705-0.228,1.367-0.529,1.984
	s-0.693,1.153-1.172,1.606c-0.479,0.454-1.04,0.812-1.683,1.077c-0.642,0.265-1.316,0.397-2.021,0.397
	c-0.127,0-0.252-0.007-0.378-0.02s-0.252-0.019-0.378-0.019V34.51c0.201,0.1,0.44,0.15,0.719,0.15c0.528,0,0.976-0.188,1.342-0.566
	c0.364-0.378,0.547-0.832,0.547-1.36v-0.228h0.039v-4.082c-0.857,0.429-1.739,0.643-2.646,0.643c-0.73,0-1.418-0.132-2.061-0.396
	s-1.203-0.624-1.682-1.077c-0.479-0.454-0.857-0.989-1.134-1.606c-0.277-0.617-0.415-1.279-0.415-1.984h-0.039v-0.756v-2.835v-3.1
	v-1.776V14.25h0.039c0-0.681,0.145-1.323,0.434-1.928s0.674-1.134,1.153-1.588c0.478-0.453,1.032-0.806,1.663-1.058
	c0.629-0.252,1.311-0.378,2.041-0.378c0.882,0,1.764,0.201,2.646,0.604V9.449V9.374H99.734z M95.841,14.175
	c0-0.252-0.069-0.485-0.207-0.7c-0.14-0.213-0.322-0.402-0.549-0.566s-0.479-0.296-0.756-0.396s-0.542-0.151-0.794-0.151
	c-0.504,0-0.938,0.177-1.304,0.529s-0.549,0.781-0.549,1.285v9.714c0,0.504,0.184,0.926,0.549,1.266
	c0.365,0.341,0.8,0.511,1.304,0.511c0.252,0,0.517-0.044,0.794-0.133c0.277-0.088,0.529-0.214,0.756-0.378
	c0.227-0.163,0.409-0.353,0.549-0.566c0.138-0.214,0.207-0.447,0.207-0.699V14.175z"/>
<path fill="#6D6E71" d="M114.019,15.271v1.814v3.213v2.91v0.794c0,0.73-0.146,1.411-0.436,2.041c-0.29,0.63-0.668,1.178-1.134,1.644
	c-0.466,0.467-1.021,0.839-1.663,1.115c-0.643,0.277-1.33,0.416-2.061,0.416s-1.411-0.139-2.041-0.416
	c-0.629-0.276-1.178-0.648-1.644-1.115c-0.467-0.466-0.845-1.014-1.134-1.644c-0.29-0.63-0.436-1.311-0.436-2.041v-0.416v-3.288
	v-3.213v-2.079v-1.059c0.025-0.705,0.177-1.373,0.454-2.003s0.655-1.178,1.134-1.645c0.479-0.466,1.033-0.831,1.664-1.096
	c0.629-0.265,1.297-0.397,2.002-0.397s1.381,0.133,2.023,0.397s1.202,0.63,1.682,1.096c0.479,0.467,0.855,1.015,1.134,1.645
	c0.276,0.63,0.429,1.298,0.454,2.003V15.271z M110.616,13.834c0-0.504-0.184-0.938-0.549-1.304s-0.8-0.548-1.303-0.548
	c-0.505,0-0.939,0.183-1.305,0.548s-0.548,0.8-0.548,1.304v10.055c0,0.504,0.183,0.938,0.548,1.304s0.8,0.548,1.305,0.548
	c0.503,0,0.938-0.183,1.303-0.548s0.549-0.8,0.549-1.304V13.834z"/>
<path fill="#6D6E71" d="M117.453,23.019v-1.813v-3.213v-2.873v-0.794c0-0.705,0.145-1.373,0.435-2.003
	c0.289-0.63,0.68-1.185,1.172-1.663c0.491-0.479,1.064-0.851,1.72-1.115s1.36-0.396,2.116-0.396c0.932,0,1.827,0.214,2.684,0.643
	V0.038h3.667v29.218h-3.667v-0.491c-0.856,0.429-1.752,0.643-2.684,0.643c-0.73,0-1.424-0.133-2.078-0.397
	c-0.656-0.265-1.229-0.63-1.721-1.096c-0.49-0.466-0.882-1.008-1.172-1.626c-0.289-0.617-0.447-1.278-0.472-1.984V23.019z
	 M120.931,24.417c0,0.505,0.189,0.933,0.566,1.285c0.379,0.354,0.832,0.529,1.361,0.529c0.252,0,0.522-0.043,0.812-0.132
	c0.289-0.088,0.548-0.214,0.775-0.378c0.227-0.164,0.415-0.359,0.566-0.586c0.15-0.227,0.227-0.466,0.227-0.719v-9.94
	c0-0.251-0.076-0.491-0.227-0.718c-0.151-0.227-0.34-0.422-0.566-0.586c-0.228-0.164-0.486-0.296-0.775-0.397
	c-0.29-0.1-0.561-0.15-0.812-0.15c-0.529,0-0.982,0.183-1.361,0.548c-0.377,0.365-0.566,0.8-0.566,1.304V24.417z"/>
<path fill="#6D6E71" d="M132.749,14.25c0.025-0.705,0.184-1.366,0.473-1.984c0.289-0.617,0.674-1.159,1.152-1.625
	c0.479-0.467,1.046-0.832,1.701-1.097s1.348-0.396,2.079-0.396c0.958,0,1.864,0.214,2.722,0.643V9.299h3.591v19.919h-3.591v-0.491
	c-0.883,0.403-1.789,0.604-2.722,0.604c-0.731,0-1.424-0.132-2.079-0.396s-1.229-0.63-1.719-1.097
	c-0.492-0.466-0.883-1.014-1.172-1.644c-0.291-0.63-0.436-1.298-0.436-2.004v-0.794v-2.872V17.35v-1.814V14.25z M136.228,24.039
	c0,0.505,0.188,0.939,0.566,1.305s0.832,0.548,1.36,0.548c0.252,0,0.517-0.05,0.794-0.151c0.277-0.101,0.529-0.232,0.756-0.396
	s0.416-0.359,0.566-0.586c0.152-0.227,0.228-0.466,0.228-0.719v-9.902c0-0.252-0.075-0.491-0.228-0.719
	c-0.15-0.227-0.34-0.421-0.566-0.585s-0.479-0.29-0.756-0.379c-0.277-0.088-0.542-0.132-0.794-0.132
	c-0.528,0-0.982,0.177-1.36,0.529s-0.566,0.781-0.566,1.285V24.039z"/>
<path fill="#6D6E71" d="M154.596,12.436c-0.101-0.024-0.252-0.038-0.454-0.038c-0.453,0-0.913,0.133-1.379,0.397
	c-0.467,0.265-0.763,0.599-0.889,1.001v15.46h-3.703V9.336h3.703v0.491c0.856-0.428,1.764-0.643,2.722-0.643V12.436z"/>
<path fill="#6D6E71" d="M157.39,23.019v-1.813v-3.213v-2.873v-0.794c0-0.705,0.145-1.373,0.434-2.003
	c0.29-0.63,0.681-1.185,1.172-1.663c0.492-0.479,1.064-0.851,1.721-1.115c0.654-0.265,1.36-0.396,2.116-0.396
	c0.932,0,1.827,0.214,2.684,0.643V0.038h3.667v29.218h-3.667v-0.491c-0.856,0.429-1.752,0.643-2.684,0.643
	c-0.731,0-1.424-0.133-2.079-0.397s-1.229-0.63-1.72-1.096s-0.882-1.008-1.172-1.626c-0.29-0.617-0.447-1.278-0.472-1.984V23.019z
	 M160.866,24.417c0,0.505,0.189,0.933,0.567,1.285c0.378,0.354,0.831,0.529,1.36,0.529c0.252,0,0.523-0.043,0.812-0.132
	c0.289-0.088,0.549-0.214,0.775-0.378s0.416-0.359,0.566-0.586c0.151-0.227,0.227-0.466,0.227-0.719v-9.94
	c0-0.251-0.075-0.491-0.227-0.718c-0.15-0.227-0.34-0.422-0.566-0.586s-0.486-0.296-0.775-0.397c-0.289-0.1-0.561-0.15-0.812-0.15
	c-0.529,0-0.982,0.183-1.36,0.548s-0.567,0.8-0.567,1.304V24.417z"/>
</svg>
