<?xml version="1.0" encoding="utf-8"?>
<!-- Generator: Adobe Illustrator 16.0.4, SVG Export Plug-In . SVG Version: 6.00 Build 0)  -->
<!DOCTYPE svg PUBLIC "-//W3C//DTD SVG 1.1//EN" "http://www.w3.org/Graphics/SVG/1.1/DTD/svg11.dtd">
<svg version="1.1" id="Logo" xmlns="http://www.w3.org/2000/svg" xmlns:xlink="http://www.w3.org/1999/xlink" x="0px" y="0px"
	 width="500px" height="500px" viewBox="0 0 500 500" enable-background="new 0 0 500 500" xml:space="preserve">
<g>
	<path d="M90.391,175.645c14.752,0,28.075-2.09,39.965-6.275l2.146-2.642c0-10.569,0.661-22.294,1.982-35.175l-25.267,1.651
		c-0.552,7.047-1.817,12.001-3.798,14.863c-1.982,2.864-5.065,4.293-9.249,4.293c-5.506,0-9.552-2.891-12.138-8.67
		c-2.588-5.78-3.881-14.476-3.881-26.093c0-11.614,1.099-19.486,3.303-23.615c2.201-4.129,6.165-6.193,11.89-6.193
		c4.183,0,7.127,0.937,8.835,2.808c1.706,1.873,2.56,4.763,2.56,8.67c0,3.909-0.111,7.295-0.33,10.157l25.432-1.487
		c0.77-13.431,2.312-25.21,4.624-35.34l-1.321-3.302C120.391,66.432,108.831,65,100.465,65c-18.607,0-32.92,4.954-42.937,14.863
		C47.509,89.771,42.5,103.535,42.5,121.148c0,17.616,4.294,31.104,12.882,40.459C63.969,170.966,75.638,175.645,90.391,175.645z"/>
	<path d="M192.284,175.81c16.623,0,29.615-5.037,38.973-15.11c9.357-10.074,14.038-24.413,14.038-43.019
		c0-35.119-16.406-52.681-49.212-52.681c-17.505,0-30.882,4.928-40.129,14.78c-9.249,9.854-13.873,23.726-13.873,41.616
		c0,17.892,4.211,31.434,12.634,40.625C163.136,171.215,175.658,175.81,192.284,175.81z M182.788,93.652
		c1.926-4.018,5.421-6.027,10.487-6.027c5.063,0,8.696,2.972,10.899,8.917c2.201,5.945,3.303,15.111,3.303,27.496
		c0,12.386-0.991,20.643-2.973,24.771c-1.981,4.129-5.506,6.193-10.569,6.193c-5.065,0-8.669-3.027-10.816-9.083
		c-2.147-6.054-3.221-15.275-3.221-27.662C179.898,105.873,180.86,97.672,182.788,93.652z"/>
	<path d="M260.404,155.911c-1.486,1.928-4.322,3.22-8.505,3.88l-1.321,15.358l23.616-1.321c6.936,0,15.688,0.661,26.256,1.981
		c17.725,0,31.734-5.393,42.03-16.184c10.292-10.789,15.44-25.432,15.44-43.928c0-33.137-17.451-49.708-52.351-49.708l-27.414,0.991
		c-4.516,0-12.881-0.165-25.101-0.495l-1.485,13.376l1.65,2.312l5.285-0.33c1.54,0,2.613,0.634,3.221,1.899
		c0.604,1.267,0.907,3.607,0.907,7.019v55.322C262.634,150.709,261.891,153.986,260.404,155.911z M296.157,91.422
		c0.109-2.973,1.266-4.459,3.468-4.459c7.817,0,13.184,2.478,16.103,7.432c2.914,4.954,4.376,13.789,4.376,26.505
		s-1.487,21.607-4.459,26.67c-2.973,5.065-8.038,7.597-15.194,7.597c-2.31,0-3.879-0.55-4.705-1.652
		c-0.825-1.099-1.239-3.246-1.239-6.44C294.506,125.718,295.057,107.168,296.157,91.422z"/>
	<path d="M450.399,174.984l2.477-2.642c1.099-11.998,2.642-23.339,4.624-34.02l-1.982-2.477l-21.138,1.487
		c-0.99,7.377-2.643,12.137-4.953,14.284c-2.312,2.147-7.048,3.221-14.203,3.221c-3.414,0-5.589-0.579-6.522-1.734
		c-0.938-1.155-1.404-4.211-1.404-9.166c0-4.954,0.054-9.302,0.166-13.046c5.944-0.661,10.759-0.991,14.449-0.991
		c3.687,0,9.604,0.166,17.753,0.496l2.312-18.991l-1.982-2.312l-18.166,0.991l-13.541-0.166l0.99-18.661
		c0-1.871,0.356-3.081,1.074-3.633c0.715-0.549,3.329-0.826,7.844-0.826c4.514,0,7.787,0.578,9.826,1.734
		c2.036,1.156,3.056,3.607,3.056,7.349c0,1.432-0.11,3.468-0.331,6.11l22.79-1.486c0.55-10.347,1.816-21.303,3.799-32.863
		L455.188,65c-10.569,1.321-24.221,1.981-40.955,1.981c-16.736,0-32.92-0.165-48.553-0.495l-1.485,13.046l1.981,2.312l4.293-0.331
		c1.761,0,2.945,0.607,3.552,1.817c0.603,1.213,0.908,3.579,0.908,7.102l-0.166,55.322c0,4.955-0.742,8.451-2.229,10.486
		c-1.485,2.039-4.321,3.386-8.505,4.046l-1.485,15.193c13.211-1.102,27.798-1.651,43.762-1.651
		C417.425,173.829,432.122,174.213,450.399,174.984z"/>
	<path d="M0,0v500h500V0H0z M480,480H20V20h460V480z"/>
	<path d="M203.449,255.443c0,1.796-0.403,3.178-1.208,4.145c-0.806,0.967-1.969,1.45-3.488,1.45c-1.519,0-2.647-0.403-3.384-1.209
		c-0.736-0.806-1.197-2.222-1.381-4.247h-1.381c-0.829,0.967-1.737,2.394-2.728,4.282c-0.99,1.888-1.692,3.499-2.106,4.835
		c0.46,1.196,1.566,2.21,3.315,3.039c1.75,0.828,3.73,1.243,5.94,1.243c3.545,0,7.114-1.751,10.706-5.25
		c3.592-3.499,5.595-7.183,6.009-11.051l2.832-26.314l0.552-0.345l8.427,0.068l0.829-5.18l-0.483-0.483h-8.634l0.622-5.525
		c0.276-2.164,0.771-3.672,1.485-4.524c0.713-0.852,1.818-1.277,3.315-1.277c1.496,0,3.511,0.99,6.043,2.97l1.381-0.207l4.075-9.048
		l-0.276-0.76c-2.072-0.691-4.627-1.036-7.667-1.036c-4.467,0-8.841,1.669-13.123,5.007c-4.282,3.34-6.63,6.988-7.045,10.947
		l-0.345,3.315l-6.078,0.898l-0.552,4.559l0.207,0.345h5.111l0.76,0.69l-1.727,24.934V255.443z"/>
	<path d="M262.225,247.294c3.408-3.868,5.111-9.002,5.111-15.402c0-4.235-1.059-7.47-3.178-9.704c-2.117-2.232-5.18-3.35-9.186-3.35
		c-5.618,0-10.13,1.889-13.537,5.664c-3.408,3.775-5.111,8.795-5.111,15.057c0,4.328,1.07,7.666,3.211,10.014
		c2.141,2.349,5.191,3.523,9.151,3.523C254.305,253.096,258.816,251.161,262.225,247.294z M249.586,230.269
		c0.645-2.095,1.52-3.143,2.625-3.143c0.967,0,1.645,0.495,2.037,1.485c0.391,0.99,0.588,3.154,0.588,6.492
		c0,3.339-0.277,5.939-0.83,7.805s-1.449,2.797-2.693,2.797c-1.795,0-2.693-2.302-2.693-6.906
		C248.619,235.207,248.941,232.364,249.586,230.269z"/>
	<path d="M308.018,218.838c-1.152,0-2.59,1.129-4.316,3.385s-3.098,4.834-4.109,7.735l-0.484,0.069
		c0.414-2.901,1.059-5.894,1.934-8.979l-0.967-1.45c-6.631,0.553-11.766,0.829-15.402,0.829l-0.828,5.663h1.934
		c1.52,0,2.279,0.784,2.279,2.349c0,1.565-1.221,9.141-3.66,22.723l1.381,1.589c2.625,0,4.949-0.357,6.977-1.07
		c2.025-0.714,3.107-1.555,3.246-2.521l0.553-4.766c2.9-8.289,6.078-12.433,9.531-12.433c1.52,0,2.738,0.461,3.66,1.381l1.312-0.621
		c0.781-2.072,1.174-3.752,1.174-5.042C312.23,223.719,310.826,220.771,308.018,218.838z"/>
	<rect x="42.5" y="232.5" width="117.647" height="5"/>
	<rect x="339.853" y="232.5" width="117.647" height="5"/>
	<path d="M396.678,289.417l-1.758,18.223l1.758,2.196h5.709c2.929,0,4.794,0.258,5.602,0.771c0.801,0.516,1.204,1.725,1.204,3.62
		c0,4.833-6.004,31.839-18.004,81.025h-4.829c-7.908-47.132-11.857-73.341-11.857-78.606c0-2.633,0.621-4.28,1.865-4.941
		c1.243-0.66,5.305-1.428,12.188-2.307l1.316-18.443l-1.759-1.978l-41.939,1.099c-7.762,0-17.784-0.145-30.08-0.439l-1.758,17.348
		l1.535,2.195c3.075,0.441,5.524,1.754,7.359,3.949c1.827,2.196,3.401,5.79,4.718,10.766c4.1,15.808,12.737,52.844,25.912,111.105
		l60.384-3.734l32.72-110.229c1.315-4.245,2.56-7.136,3.729-8.671c1.171-1.54,2.931-2.673,5.271-3.405l1.536-19.104l-27.006,0.219
		C421.561,290.076,410.29,289.857,396.678,289.417z"/>
	<path d="M118.256,434.561c42.158,0,63.237-15.293,63.237-45.893c0-8.784-2.526-15.552-7.574-20.308
		c-5.052-4.761-11.678-8.604-19.874-11.528c14.2-9.517,21.303-20.715,21.303-33.598c0-11.271-4.25-19.874-12.738-25.801
		c-8.491-5.93-20.938-8.895-37.328-8.895l-42.158,1.537c-4.688,0-17.057-0.144-37.11-0.439l-2.638,17.566l2.638,2.633l7.467-0.438
		c3.949,0,5.927,3.371,5.927,10.105l-0.219,78.389c0,5.271-1.025,9.002-3.075,11.197c-2.05,2.196-5.927,3.809-11.64,4.829
		L42.5,433.682l39.744-1.535C94.243,432.146,106.248,432.948,118.256,434.561z M104.858,319.28c0.146-2.05,1.462-3.071,3.954-3.071
		c14.195,0,21.297,4.976,21.297,14.93c0,3.512-0.951,7.029-2.852,10.537c-1.904,3.517-4.027,6.004-6.369,7.471
		c-3.37,0-9.221-0.806-17.566-2.418L104.858,319.28z M102.885,375.055h17.344c9.367,2.93,14.055,8.273,14.055,16.031
		c0,10.688-5.417,16.027-16.25,16.027c-10.834,0-16.246-3.367-16.246-10.101L102.885,375.055z"/>
	<path d="M278.705,321.912c1.608,3.518,2.998,12.301,4.173,26.35l27.229-1.754l-1.099-55.774l-2.856-3.073l-26.568,2.415h-68.949
		l-26.132-2.415l-2.852,3.073c-0.15,16.691-0.737,35.87-1.759,57.528l27.229-1.754c1.021-12.441,2.487-20.529,4.392-24.262
		c1.9-3.734,5.781-5.601,11.635-5.601v78.608c0,6.883-1.389,11.528-4.168,13.946c-2.783,2.415-8.642,3.989-17.566,4.718
		l-1.759,20.204l44.136-1.977c8.346,0,23.201,0.438,44.576,1.316l1.978-20.642l-1.098-1.316l-11.202,0.66
		c-4.246,0-7.21-1.132-8.891-3.405c-1.686-2.269-2.526-6.18-2.526-11.747c0-29.425,0.364-56.212,1.098-80.366
		C273.435,316.646,277.093,318.404,278.705,321.912z"/>
</g>
</svg>
