<?xml version="1.0" encoding="utf-8"?>
<!-- Generator: Adobe Illustrator 15.1.0, SVG Export Plug-In  -->
<!DOCTYPE svg PUBLIC "-//W3C//DTD SVG 1.1//EN" "http://www.w3.org/Graphics/SVG/1.1/DTD/svg11.dtd" [
	<!ENTITY ns_flows "http://ns.adobe.com/Flows/1.0/">
]>
<svg version="1.1"
	 xmlns="http://www.w3.org/2000/svg" xmlns:xlink="http://www.w3.org/1999/xlink" xmlns:a="http://ns.adobe.com/AdobeSVGViewerExtensions/3.0/"
	 x="0px" y="0px" width="106px" height="50px" viewBox="-0.948 0 106 50"
	 overflow="visible" enable-background="new -0.948 0 106 50" xml:space="preserve">
<defs>
</defs>
<path d="M19.779,50h-1.99c-3.463,0-6.039-0.812-7.725-2.437c-1.687-1.624-2.53-4.086-2.53-7.386v-9.258
	c0-0.877-0.098-1.663-0.294-2.354c-0.199-0.689-0.543-1.273-1.037-1.749c-0.495-0.474-1.149-0.838-1.965-1.089
	c-0.817-0.251-1.844-0.377-3.081-0.377H0v-3.74h1.157c1.309,0,2.378-0.108,3.203-0.323c0.823-0.215,1.47-0.542,1.937-0.982
	c0.467-0.439,0.789-0.999,0.969-1.683c0.179-0.681,0.269-1.488,0.269-2.422V9.823c0-1.507,0.18-2.867,0.539-4.078
	C8.432,4.534,9.02,3.503,9.836,2.651c0.817-0.851,1.874-1.507,3.177-1.964C14.312,0.229,15.904,0,17.789,0h1.99v3.768h-1.586
	c-4.165,0-6.244,2.019-6.244,6.055v6.27c0,4.378-1.895,6.846-5.679,7.401c3.821,0.375,5.731,2.835,5.731,7.373v9.203
	c0,4.107,2.063,6.162,6.191,6.162h1.586V50z"/>
<path fill="#FFFFFF" d="M52.227,5.961l-2.367,35.172h-6.217l-4.36-12.513l-1.21-4.01l-1.265,4.333l-4.038,12.19h-6L24.348,5.961
	h4.521l1.371,23.924l0.405,6.565l1.695-5.571l4.251-13.051h3.31l4.897,13.993l1.642,4.628l0.11-4.844l1.397-25.646H52.227z"/>
<path fill="#FFFFFF" d="M79.569,10.051H64.634v11.41h14.154v4.009H64.634v15.662h-4.896V5.961h19.832V10.051z"/>
<path d="M84.358,0h1.991c3.463,0,6.037,0.812,7.724,2.436c1.688,1.625,2.528,4.087,2.528,7.387v6.215
	c0,0.88,0.101,1.666,0.296,2.355c0.199,0.69,0.545,1.275,1.035,1.749c0.496,0.477,1.155,0.84,1.979,1.09
	c0.827,0.252,1.857,0.376,3.095,0.376h1.157v3.74h-1.157c-1.309,0-2.379,0.108-3.216,0.323c-0.833,0.216-1.482,0.543-1.95,0.981
	c-0.465,0.442-0.787,1.001-0.968,1.683c-0.18,0.683-0.271,1.49-0.271,2.422v9.419c0,1.507-0.178,2.866-0.537,4.077
	c-0.357,1.21-0.943,2.242-1.752,3.094c-0.805,0.852-1.861,1.508-3.175,1.964C89.831,49.77,88.231,50,86.35,50h-1.991v-3.769h1.613
	c4.144,0,6.217-2.018,6.217-6.054v-9.311c0-4.375,1.893-6.836,5.679-7.373c-3.822-0.413-5.731-2.88-5.731-7.401V9.93
	c0-4.107-2.053-6.162-6.164-6.162h-1.613V0z"/>
</svg>
