<?xml version="1.0" encoding="utf-8"?>
<!-- Generator: Adobe Illustrator 15.1.0, SVG Export Plug-In  -->
<!DOCTYPE svg PUBLIC "-//W3C//DTD SVG 1.1//EN" "http://www.w3.org/Graphics/SVG/1.1/DTD/svg11.dtd" [
	<!ENTITY ns_flows "http://ns.adobe.com/Flows/1.0/">
]>
<svg version="1.1"
	 xmlns="http://www.w3.org/2000/svg" xmlns:xlink="http://www.w3.org/1999/xlink" xmlns:a="http://ns.adobe.com/AdobeSVGViewerExtensions/3.0/"
	 x="0px" y="0px" width="30px" height="36px" viewBox="-0.984 -0.864 30 36"
	 overflow="visible" enable-background="new -0.984 -0.864 30 36" xml:space="preserve">
<defs>
</defs>
<polygon fill="#3386AA" points="13.956,0 13.954,0.002 13.958,0.001 "/>
<path fill="#3386AA" d="M13.958,0.001c-0.002,0-0.003,0-0.004,0c-0.029,0.021-3.342,2.489-6.733,6.176
	c4.192-1.351,8.611-1.698,13.217-0.37c-0.142-0.15-0.283-0.302-0.424-0.448C16.873,2.104,13.984,0.02,13.958,0.001z"/>
<path fill="#3386AA" d="M21.96,17.298c-7.798-3.687-15.217-1.585-21.928,2.37C0.015,19.923,0,20.179,0,20.435
	c0,2.199,0.315,4.089,0.836,5.769C2.697,32.21,7.664,35,14.512,35c8.144,0,13.245-5.45,13.457-13.287
	C26.431,20.074,24.577,18.533,21.96,17.298z"/>
<path fill="#3386AA" d="M5.065,8.696c-1.642,2.081-3.126,4.402-4.058,6.809c6.789-3.445,14.275-4.859,22.304-1.065
	c1.587,0.75,2.93,1.595,4.098,2.494c-0.891-3.142-2.758-6.119-4.827-8.678C16.431,5.601,10.547,6.347,5.065,8.696z"/>
</svg>
