<?xml version="1.0" encoding="utf-8"?>
<!-- Generator: Adobe Illustrator 15.1.0, SVG Export Plug-In  -->
<!DOCTYPE svg PUBLIC "-//W3C//DTD SVG 1.1//EN" "http://www.w3.org/Graphics/SVG/1.1/DTD/svg11.dtd" [
	<!ENTITY ns_flows "http://ns.adobe.com/Flows/1.0/">
]>
<svg version="1.1"
	 xmlns="http://www.w3.org/2000/svg" xmlns:xlink="http://www.w3.org/1999/xlink" xmlns:a="http://ns.adobe.com/AdobeSVGViewerExtensions/3.0/"
	 x="0px" y="0px" width="32px" height="32px" viewBox="-4.396 -1.256 32 32"
	 overflow="visible" enable-background="new -4.396 -1.256 32 32" xml:space="preserve">
<defs>
</defs>
<polygon fill="#3386AA" points="11.748,0 11.746,0.001 11.749,0.001 "/>
<path fill="#3386AA" d="M11.749,0.001h-0.003c-0.025,0.018-2.812,2.096-5.668,5.199c3.528-1.137,7.249-1.43,11.125-0.312
	c-0.119-0.127-0.238-0.254-0.356-0.377C14.203,1.771,11.771,0.017,11.749,0.001z"/>
<path fill="#3386AA" d="M18.484,14.561c-6.562-3.104-12.809-1.334-18.457,1.995C0.012,16.771,0,16.986,0,17.202
	c0,1.851,0.266,3.442,0.703,4.856c1.567,5.056,5.748,7.403,11.512,7.403c6.855,0,11.149-4.587,11.328-11.185
	C22.248,16.897,20.688,15.601,18.484,14.561z"/>
<path fill="#3386AA" d="M4.264,7.32c-1.381,1.751-2.632,3.705-3.415,5.731c5.715-2.899,12.016-4.09,18.774-0.896
	c1.335,0.631,2.466,1.343,3.449,2.099c-0.75-2.645-2.322-5.15-4.063-7.305C13.83,4.714,8.878,5.342,4.264,7.32z"/>
</svg>
