<?xml version="1.0" encoding="utf-8"?>
<!-- Generator: Adobe Illustrator 15.1.0, SVG Export Plug-In  -->
<!DOCTYPE svg PUBLIC "-//W3C//DTD SVG 1.1//EN" "http://www.w3.org/Graphics/SVG/1.1/DTD/svg11.dtd" [
	<!ENTITY ns_flows "http://ns.adobe.com/Flows/1.0/">
]>
<svg version="1.1"
	 xmlns="http://www.w3.org/2000/svg" xmlns:xlink="http://www.w3.org/1999/xlink" xmlns:a="http://ns.adobe.com/AdobeSVGViewerExtensions/3.0/"
	 x="0px" y="0px" width="775px" height="150px" viewBox="-7.3 -4.4 775 150"
	 overflow="visible" enable-background="new -7.3 -4.4 775 150" xml:space="preserve">
<defs>
</defs>
<path fill="#3A3A3A" stroke="#0C3534" stroke-width="1.3557" stroke-linecap="round" stroke-linejoin="round" stroke-miterlimit="10" d="
	M326.8,44.5c0-0.1-0.1-0.2-0.1-0.3C326.7,44.4,326.7,44.5,326.8,44.5L326.8,44.5z"/>
<path fill="#3A3A3A" stroke="#0C3534" stroke-width="1.3557" stroke-linecap="round" stroke-linejoin="round" stroke-miterlimit="10" d="
	M117.6,88.3l0.2-0.2C117.7,88.1,117.6,88.2,117.6,88.3L117.6,88.3z"/>
<path fill="#3A3A3A" stroke="#0C3534" stroke-width="1.3557" stroke-linecap="round" stroke-linejoin="round" stroke-miterlimit="10" d="
	M158.2,82.3c0-2.5-1.5-3.8-3.9-3.9V86c0.1,0,0.1,0,0.2,0l3.4,5.4l0.2-0.2C157.5,86.9,158.2,86.8,158.2,82.3z"/>
<path fill="#3A3A3A" stroke="#0C3534" stroke-width="1.3557" stroke-linecap="round" stroke-linejoin="round" stroke-miterlimit="10" d="
	M194,84.6l0.2-0.2C194.1,84.5,194,84.5,194,84.6L194,84.6z"/>
<path fill="#3A3A3A" stroke="#0C3534" stroke-width="1.3557" stroke-linecap="round" stroke-linejoin="round" stroke-miterlimit="10" d="
	M227.1,76.1l6.7,10.2c-0.5-1.1-1.1-2.4-2.1-4C229.5,79,228.4,77.7,227.1,76.1z"/>
<path fill="#96CE8E" stroke="#0C3534" stroke-width="1.3557" stroke-linecap="round" stroke-linejoin="round" stroke-miterlimit="10" d="
	M106.5,79.1c0-0.3-0.1-0.6-0.2-0.9c0-0.2,0-0.3-0.1-0.5c0,0,0-0.1,0-0.1c-0.2-0.8-0.6-1.4-1.1-1.9c-0.6-0.5-1.4-0.9-2.5-0.9
	c-7.1,0-7.1-0.3-14.1-0.3c-7.1,0-7.1,1-14.1,1c-2.4,0-4.2-1.5-4.2-3.9c0-0.6,0-1.2,0-1.7c0.1-8.2,1.1-8.8,1.1-18.1
	c0-9.9-1.5-9.9-1.5-19.8c0-9.9,1-9.9,1-19.8c0-0.7-0.2-1.1-0.4-1.6l0,0c0,0-0.1-0.1-0.1-0.3c-0.6-1.1-1.8-1.5-3.6-1.5
	c-7.1,0-7.1-1-14.2-1c-2.4,0-4.3,1.8-4.3,4.3c0,9.4,1.2,9.4,1.2,18.8c0,9.4-0.6,9.4-0.6,18.8c0,9.3-0.3,9.4-0.3,18.4
	c0,0.1,0,0.3,0,0.4c0.1,0,0.1,0.5,0.1,0.5c6.9,3.3,10.7,7.6,14.2,11.9c4.1,5.1,8,9.1,14.3,11.8C81.5,94.7,87,96,95.5,95
	c4-0.5,7.4-1.3,10.7-2.4C107.7,86,106.5,85.9,106.5,79.1z"/>
<path fill="#919191" stroke="#0C3534" stroke-width="1.3557" stroke-linecap="round" stroke-linejoin="round" stroke-miterlimit="10" d="
	M117.1,88.3c0.1-0.1,0.3-0.1,0.4-0.1l-0.4-0.7C117.1,87.8,117.1,88,117.1,88.3z"/>
<path fill="#96CE8E" stroke="#0C3534" stroke-width="1.3557" stroke-linecap="round" stroke-linejoin="round" stroke-miterlimit="10" d="
	M180.5,55.7c0-8.3-0.3-8.3-0.3-16.7c0-3.3-0.5-6.5-1.3-9.6c-0.6-2.6-1.4-5.1-2.3-7.5c-1.9-5.3-4.3-10.8-10.5-13.6
	c-4.3-1.9-10.2-1.5-17.5-1.5c-7.3,0-13.2-0.4-17.5,1.6c-6.2,2.8-8.7,8.2-10.6,13.4c-1.9,5.3-2.1,11.2-2.1,17.1
	c0,8.2-1.3,8.2-1.3,16.4c0,8.2,1.3,8.2,1.3,16.4c0,7.9-1.9,8.4-1.3,15.6l0.4,0.7c0.1,0,0.2-0.1,0.2-0.1c1.7-0.6,3.7-0.9,5.3-1.5
	c9.1-3.3,3.7-2.3,12.4-0.2c1.3,0.3,2,0.2,3.2,0.5c0.6-2.3,1.2-2.3,1.2-4.7c0-2.5,0.9-3,3.3-3c5.5,0,5.5-0.8,10.9-0.8
	c0.1,0,0.1,0,0.2,0c2.4,0.1,3.9,1.4,3.9,3.9c0,4.5-0.7,4.6-0.1,9c0,0.1,0,0.1,0,0.2c1.3,0.1,2.4,1,3.8,1c6.4,0.1,11.7-1.9,17.3-3.5
	c2.4-8,0.6-8.2,0.6-16.5C179.8,64.1,180.5,64.1,180.5,55.7z M149.1,54.7c-4.7,0-8.2-1.9-9.5-6.1c-0.4-1.2-0.6-2.5-0.6-4
	c0-7,9.6-14.1,9.6-14.1s2,1.4,4.2,3.7c2.5,2.6,5.2,6.2,5.5,10C158.8,50.4,155.2,54.7,149.1,54.7z"/>
<path fill="#0C3534" stroke="#0C3534" stroke-width="1.3557" stroke-linecap="round" stroke-linejoin="round" stroke-miterlimit="10" d="
	M538.7,49.8c-2.4,0-4.4-0.5-6.1-1.5c1.2,4.4,4.7,6.5,9.6,6.5c6.1,0,9.7-4.4,9.3-10.4c-0.2-3.4-2.5-6.7-4.7-9.2
	c0.7,1.4,1.1,2.8,1.2,4.2C548.4,45.5,544.7,49.8,538.7,49.8z"/>
<path fill="#0C3534" stroke="#0C3534" stroke-width="1.3557" stroke-linecap="round" stroke-linejoin="round" stroke-miterlimit="10" d="
	M511.1,61.8c0-11.4-0.7-11.4-0.7-22.8c0-6,0.1-12.3,2-17.6c1.9-5.3,5.9-9.8,12.1-12.6c4.3-1.9,10-2.7,17.3-2.7
	c7.3,0,13.2,0.4,17.5,2.3c3.2,1.4,5.7,3.4,7.7,5.8c-1.4-2.1-2.8-3.9-4.2-5.3c-0.2-0.2-0.4-0.4-0.6-0.7c-0.1-0.1-0.2-0.2-0.3-0.3
	c-0.7-0.7-1.4-1.3-2.2-1.9c-1.5-1.1-2.5-1.7-2.5-1.7l0,0.1c-4.5-2.5-10.6-4-19-4c-28.5,0-31.1,17-31.1,33v45.5l2.8,4.1
	C507,73.9,511.1,72.7,511.1,61.8z"/>
<path fill="#0C3534" stroke="#0C3534" stroke-width="1.3557" stroke-linecap="round" stroke-linejoin="round" stroke-miterlimit="10" d="
	M587.8,66c0-9-0.9-9-0.9-18c0-9,1-9,1-18c0-9-0.2-9-0.2-17.9c0-2.5,0.9-4.1,3.3-4.1c9.1,0,9.1,0.5,18.2,0.5c9.1,0,9.1-0.5,18.2-0.5
	c9.1,0,9.1-0.3,18.2-0.3c1.7,0,2.7,0.9,3.3,2.1c-0.9-2.3-3.2-5-3.9-5.8c-0.1-0.1-0.1-0.1-0.2-0.2l0,0l0,0C644,3.3,643.1,3,641.9,3
	h-54.5c-2.4,0-3.8,1.3-3.8,3.8v71.8l2.4,3.6C584.3,75.7,587.8,74.2,587.8,66z"/>
<path fill="#0C3534" stroke="#0C3534" stroke-width="1.3557" stroke-linecap="round" stroke-linejoin="round" stroke-miterlimit="10" d="
	M613.5,42.1c10.5,0,10.5,0.3,20.9,0.3c2.2,0,3.4,0.6,3.7,2.5l0,0c0-2.2-2.5-5.2-4-6.9c-0.2-0.4-0.6-0.7-0.9-1
	c-0.2-0.2-0.3-0.3-0.3-0.3v0.1c-0.6-0.3-1.2-0.5-2-0.5h-20.9c-0.1,0-0.3,0-0.4-0.1c0.1,0.4,0.1,0.9,0.1,1.7
	C609.7,40.4,611.1,42.1,613.5,42.1z"/>
<path fill="#0C3534" stroke="#0C3534" stroke-width="1.3557" stroke-linecap="round" stroke-linejoin="round" stroke-miterlimit="10" d="
	M684.1,66.9c0-8.2-0.2-8.2-0.2-16.5c0-8.2,0.2-8.2,0.2-16.4c0-2.5-1.7-3.3-4.1-3.3v47.3l3.4,5.1C680.6,75.8,684.1,75,684.1,66.9z"/>
<path fill="#0C3534" stroke="#0C3534" stroke-width="1.3557" stroke-linecap="round" stroke-linejoin="round" stroke-miterlimit="10" d="
	M658.2,26.4c0-7.1,0.8-7.1,0.8-14.2c0-2.5,0.7-4.4,3.1-4.4c8.1,0,8.1,0.7,16.2,0.7c8.1,0,8.1-0.6,16.2-0.6c8.1,0,8.1,0.7,16.2,0.7
	c8.1,0,8.1-0.7,16.2-0.7c1,0,1.9,0.4,2.7,0.9c-0.9-1.8-2.2-3.4-3.2-4.4c-0.2-0.3-0.5-0.6-0.9-0.8c-0.2-0.2-0.4-0.3-0.4-0.3l0,0.1
	c-0.5-0.2-1.1-0.4-1.9-0.4h-64.9c-2.4,0-3.8,1.3-3.8,3.8V21c0,0.5,0.1,0.8,0.2,1.2l0,0c0,0,0,0.1,0,0.1c0.1,0.2,0.1,0.4,0.2,0.6
	c0.7,1.7,2.8,6.3,6.1,7.3c0.7,0.2,1.3,0,1.9-0.4c-0.3,0-0.6,0-1,0C659.7,29.7,658.2,28.8,658.2,26.4z"/>
<path fill="#0C3534" stroke="#0C3534" stroke-width="1.3557" stroke-linecap="round" stroke-linejoin="round" stroke-miterlimit="10" d="
	M432.2,63.2c0-8.5,0.6-8.5,0.6-17s-0.2-8.5-0.2-17c0-8.5-0.2-8.5-0.2-16.9c0-2.3,1.4-4.7,3.7-4.7c6.9,0,6.9,1.5,13.9,1.5
	s6.9-0.6,13.9-0.6c6.7,0,12.4,0.3,16.8,2.1c5.7,2.2,9.3,6.5,11.7,11.8c0.5,1.1,1,2.3,1.4,3.5c-3.3-12.2-11.2-17.2-11.2-17.2l0,0.1
	C477.5,4.8,470.1,3,460.2,3h-27.8c-2.3,0-3.9,1.7-3.9,3.9v67.8l2.6,3.8C430,72,432.2,71,432.2,63.2z"/>
<path fill="#0C3534" stroke="#0C3534" stroke-width="1.3557" stroke-linecap="round" stroke-linejoin="round" stroke-miterlimit="10" d="
	M461,42h-6.5c0,0.4,0,0.9,0,1.5c0,2.3,1.3,3.2,3.6,3.2c3.2,0,3.2,0.7,6.5,0.7c6.1,0,9.8-0.7,9.8-8.5c0-5.2-1.6-7.3-4.5-8.2
	c0.1,0.8,0.2,1.7,0.2,2.7C470.1,41.2,467.1,42,461,42z"/>
<path fill="#0C3534" stroke="#0C3534" stroke-width="2.7115" stroke-miterlimit="10" d="M399.1,36.7c-0.4-3.7-1.9-6.2-4.8-7.5
	c0.2,0.7,0.3,1.4,0.4,2.2c0,0.2,0.1,0.5,0.2,0.7l-0.1,0c0,0,0.1,0.3,0.3,0.7c0.1,0.2,0.2,0.4,0.3,0.6c1.4,2.7,5,8.7,8,7.3l0.2-0.7
	c-0.1,0-0.2,0-0.4,0.1C400.6,40.6,399.5,39.3,399.1,36.7z"/>
<path fill="#0C3534" stroke="#0C3534" stroke-width="1.3557" stroke-linecap="round" stroke-linejoin="round" stroke-miterlimit="10" d="
	M356.2,52.7c0-7.9,0-7.9,0-15.8c0-3.7,0.7-10.3,3.7-16.4c2.2-4.5,6-8.7,12-11.4c4.2-1.9,9.6-2.7,16.5-2.7c6.4,0,11.3,1.2,15.4,2.8
	c5.8,2.4,9.7,5.6,12.1,9.6c0.4,0.7,0.7,1.3,1,2c-1.7-4.2-4.4-7.8-6.8-10.4c-1.2-1.4-2.6-2.8-4.3-4c-0.2-0.2-0.3-0.3-0.3-0.3l0,0
	c-4.7-3.3-11.3-5.5-20.7-5.5c-30,0-31.8,22.4-31.8,30.8v31.7c0,2,0.1,5,0.8,8.1c0.9,6,4,11.3,6.6,15c-3.7-6.5-4.3-13.7-4.3-17.7
	C356.1,60.7,356.2,60.7,356.2,52.7z"/>
<path fill="#0C3534" stroke="#0C3534" stroke-width="1.3557" stroke-linecap="round" stroke-linejoin="round" stroke-miterlimit="10" d="
	M388.5,78.4c7,0,9.6-4,10.3-9.8c0.4-2.7,1.7-4.5,4.3-3.9c7.2,1.6,7.2,1.5,14.3,3.1c0.7,0.1,1.3,0.5,1.8,0.9
	c-1.4-2.5-3.7-5.4-3.7-5.4l0,0.2c-0.5-0.4-1-0.8-1.7-0.9l-14.3-3.2c-2.5-0.6-4.6,1-4.9,3.7c-0.8,5.8-2.7,9.1-9.6,9.1
	c-2.3,0-4.1-0.4-5.5-1.1C380.2,75.6,382.5,78.4,388.5,78.4z"/>
<path fill="#0C3534" stroke="#0C3534" stroke-width="1.3557" stroke-linecap="round" stroke-linejoin="round" stroke-miterlimit="10" d="
	M303.6,75.3c7.7,0,7.7-0.3,15.3-0.3c7.7,0,7.7,0.9,15.3,0.9c2.5,0,3.6,0.7,3.6,3.2l0,0h0.2c-1.2-5.5-3.5-7.8-5.2-8.6
	c-0.3-0.2-0.6-0.3-1-0.4c-0.7-0.2-1.2-0.2-1.2-0.2h-30.6c0.2,0.4,0.4,0.9,0.4,1.6C300.5,73.9,301.2,75.3,303.6,75.3z"/>
<path fill="#0C3534" stroke="#0C3534" stroke-width="1.3557" stroke-linecap="round" stroke-linejoin="round" stroke-miterlimit="10" d="
	M303.6,41.7c9.8,0,9.8,0.1,19.6,0.1c1.5,0,2.4,0.5,3,1.4c-1.2-2.8-2.4-4.4-3.5-5.4c-0.4-0.6-1.1-1-1.9-1.2c-0.7-0.2-1.2-0.2-1.2-0.2
	H300c0,0-0.1,0-0.1,0c0.2,0.4,0.4,0.9,0.4,1.6C300.3,40.4,301.2,41.7,303.6,41.7z"/>
<path fill="#0C3534" stroke="#0C3534" stroke-width="1.3557" stroke-linecap="round" stroke-linejoin="round" stroke-miterlimit="10" d="
	M277,70.7c0-9.8,0.9-9.8,0.9-19.5c0-9.7-0.2-9.7-0.2-19.5c0-9.8-0.4-9.8-0.4-19.5c0-2.5,1.3-4.3,3.7-4.3c8.9,0,8.9,1.2,17.8,1.2
	c8.9,0,8.9-1.3,17.8-1.3c8.9,0,8.9,1.3,17.7,1.3c1.7,0,2.9,0.3,3.5,1.2c-1.5-3.4-2.9-5.1-3.9-6c-0.6-0.9-1.6-1.5-3.1-1.5h-53.2
	c-2.4,0-3.8,1.3-3.8,3.8v78l3.3,4.9C274,81,277,80.2,277,70.7z"/>
<path fill="#0C3534" stroke="#0C3534" stroke-width="1.3557" stroke-linecap="round" stroke-linejoin="round" stroke-miterlimit="10" d="
	M118.3,71.9c0-8.2-1.3-8.2-1.3-16.4c0-8.2,1.3-8.2,1.3-16.4c0-6,0.2-11.8,2.1-17.1c1.9-5.3,4.4-10.7,10.6-13.4
	c4.3-1.9,10.2-1.6,17.5-1.6c7.3,0,13.2-0.5,17.5,1.5c6.2,2.8,8.6,8.3,10.5,13.6c0.9,2.4,1.7,4.9,2.3,7.5c-1.5-10-5.3-16.2-9.1-20.1
	c-4.5-5.2-12-8.6-24.8-8.6c-28.5,0-31.1,17-31.1,33v49.2l3.1,4.7C116.4,80.2,118.3,79.8,118.3,71.9z"/>
<path fill="#0C3534" stroke="#0C3534" stroke-width="1.3557" stroke-linecap="round" stroke-linejoin="round" stroke-miterlimit="10" d="
	M154.7,39.5c0.4,6.1-3.2,10.4-9.3,10.4c-2.2,0-4.2-0.4-5.7-1.3c1.3,4.2,4.7,6.1,9.5,6.1c6.1,0,9.7-4.4,9.3-10.4
	c-0.2-3.8-3-7.5-5.5-10C153.9,35.9,154.6,37.7,154.7,39.5z"/>
<path fill="#0C3534" stroke="#0C3534" stroke-width="1.3557" stroke-linecap="round" stroke-linejoin="round" stroke-miterlimit="10" d="
	M74.3,75.4c7.1,0,7.1-1,14.1-1c7.1,0,7.1,0.3,14.1,0.3c1.1,0,1.9,0.4,2.5,0.9c-1.2-2-2.1-3.3-2.8-4.1c-0.6-1.1-1.6-1.8-3.3-1.8H70.7
	c-0.2,0-0.4-0.1-0.6-0.1c0,0.5,0,1.1,0,1.7C70.1,73.9,71.9,75.4,74.3,75.4z"/>
<path fill="#0C3534" stroke="#0C3534" stroke-width="1.3557" stroke-linecap="round" stroke-linejoin="round" stroke-miterlimit="10" d="
	M49.4,31c0-9.4-1.2-9.4-1.2-18.8c0-2.5,1.9-4.3,4.3-4.3c7.1,0,7.1,1,14.2,1c1.7,0,3,0.4,3.6,1.5c-0.5-0.9-2.1-4.1-4-5.9
	C65.7,3.5,64.6,3,63.1,3h-2.6c-0.4,0-0.6,0-0.6,0l0,0h-11c-2.4,0-3.8,1.3-3.8,3.8v56.5l3.4,5c0-9,0.3-9.1,0.3-18.4
	C48.9,40.4,49.4,40.4,49.4,31z"/>
<path fill="#0C3534" stroke="#0C3534" stroke-width="1.3557" stroke-linecap="round" stroke-linejoin="round" stroke-miterlimit="10" d="
	M217.9,38.4c4.9-6.9,5.2-6.7,10.1-13.5c5-6.8,5-6.8,10-13.7c1.1-1.6,2-2.5,4-2.5c9.4,0,9.4-0.7,18.8-0.7c1.2,0,1.9,0.3,2.4,0.7
	c-0.9-1.6-2.1-3.8-2.6-4.4c-0.2-0.3-0.7-0.6-1.1-0.8c-0.5-0.3-1.3-0.6-2.3-0.6h-18.8c-2,0-3.4,0.8-4.6,2.4l-18.2,25.1
	c-0.1,1.9-0.2,4.2-0.2,7.2C215.5,38.9,217.3,39.4,217.9,38.4z"/>
<path fill="#0C3534" stroke="#0C3534" stroke-width="1.3557" stroke-linecap="round" stroke-linejoin="round" stroke-miterlimit="10" d="
	M194.4,66.5c0-9.1-0.3-9.1-0.3-18.1c0-9.1,0.2-9.1,0.2-18.1c0-9,0.3-9,0.3-18.1c0-2.5,0.8-3.8,3.2-3.8c7.2,0,7.2,0,14.5,0
	c1.2,0,2.2,0.3,2.9,0.8c-0.8-1.8-2.2-3.6-3.4-4.8c-0.6-0.9-1.6-1.4-3.2-1.4h-0.6l-0.3,0l0,0h-13.6c-2.4,0-3.8,1.3-3.8,3.8v72.4
	l3.1,4.6C193,75.6,194.4,75.3,194.4,66.5z"/>
<path fill="#0C3534" stroke="#0C3534" stroke-width="1.3557" stroke-linecap="round" stroke-linejoin="round" stroke-miterlimit="10" d="
	M263.5,10.5l0.4-0.3c-0.1-0.2-0.2-0.4-0.4-0.8C263.6,9.7,263.6,10.1,263.5,10.5z"/>
<path fill="#0C3534" stroke="#0C3534" stroke-width="1.3557" stroke-linecap="round" stroke-linejoin="round" stroke-miterlimit="10" d="
	M263.2,8.7c0.1,0.2,0.2,0.5,0.4,0.7C263.5,9.1,263.4,8.9,263.2,8.7z"/>
<path fill="#919191" stroke="#0C3534" stroke-width="1.3557" stroke-linecap="round" stroke-linejoin="round" stroke-miterlimit="10" d="
	M193.5,84.6c0.1,0,0.3-0.1,0.4-0.1l-0.5-0.7C193.5,84.1,193.5,84.3,193.5,84.6z"/>
<path fill="#96CE8E" stroke="#0C3534" stroke-width="1.3557" stroke-linecap="round" stroke-linejoin="round" stroke-miterlimit="10" d="
	M256.1,78.4c-4.6-7.1-4.7-7-9.3-14.1c-4.6-7.1-4.5-7.2-9.1-14.2c-0.5-0.6-0.9-1.5-0.5-2.1c6.4-8.8,7.3-8.2,13.7-17
	c6.4-8.8,5.4-9.5,11.8-18.4c0.5-0.8,0.8-1.5,1-2.1c0.1-0.4,0.1-0.8,0-1.1c-0.1-0.2-0.2-0.4-0.4-0.7C262.8,8.3,262,8,260.8,8
	c-9.4,0-9.4,0.7-18.8,0.7c-2,0-2.9,0.9-4,2.5c-5,6.9-5,6.8-10,13.7c-5,6.8-5.2,6.7-10.1,13.5c-0.6,1-2.5,0.5-2.5-0.8
	c0-3,0.1-5.3,0.2-7.2c0.3-6.2,1.1-8.5,1.1-18.3c0-1.4-0.6-2.4-1.5-3c-0.8-0.5-1.8-0.8-2.9-0.8c-7.2,0-7.2,0-14.5,0
	c-2.4,0-3.2,1.3-3.2,3.8c0,9-0.3,9-0.3,18.1c0,9.1-0.2,9.1-0.2,18.1c0,9.1,0.3,9.1,0.3,18.1c0,8.8-1.4,9.1-0.9,17.3l0.5,0.7
	c0.1,0,0.2,0,0.2-0.1c1.1-0.3,2.3-0.6,3.3-0.9c8-2.1,13.4,0.5,18.9,3.4c2.9-2.3,0.3-4,0.3-7.7c0-0.6-0.1-0.9,0.2-1.4
	c2.6-3.5,2.2-3.8,4.8-7.4c0.5-0.8,1-0.5,1.5,0.2c1.8,2.7,2.9,4.1,3.9,5.4c1.2,1.6,2.4,2.9,4.5,6.2c1,1.6,1.7,2.9,2.1,4
	c1.3,3,1.4,4.8,5.6,8c8.9,0.8,17.5,0.8,26.1-0.8c-0.1-0.1,0.4-1.3,0.4-1.4C261.3,85,260.7,85.4,256.1,78.4z"/>
<path fill="#919191" stroke="#0C3534" stroke-width="1.3557" stroke-linecap="round" stroke-linejoin="round" stroke-miterlimit="10" d="
	M326.2,43.2c0.1,0.3,0.3,0.7,0.5,1C326.6,43.8,326.4,43.5,326.2,43.2z"/>
<path fill="#96CE8E" stroke="#0C3534" stroke-width="1.3557" stroke-linecap="round" stroke-linejoin="round" stroke-miterlimit="10" d="
	M337.9,79.1c0-2.5-1-3.2-3.6-3.2c-7.7,0-7.7-0.9-15.3-0.9c-7.7,0-7.7,0.3-15.3,0.3c-2.4,0-3.1-1.4-3.1-3.8c0-0.8-0.2-1.2-0.4-1.6
	c-0.3-0.7-0.8-1.2-0.8-2.4c0-2.5,1.9-3.2,4.3-3.2c9.8,0,9.8,0,19.6,0c2.5,0,3.6-2,3.6-4.4c0-7.1,0-7.1,0-14.2c0-0.4-0.1-0.7-0.1-1
	c0-0.1,0-0.3,0-0.4c-0.1-0.4-0.3-0.7-0.5-1c-0.6-0.9-1.5-1.4-3-1.4c-9.8,0-9.8-0.1-19.6-0.1c-2.4,0-3.3-1.2-3.3-3.6
	c0-0.8-0.2-1.2-0.4-1.6c-0.3-0.7-0.8-1.2-0.8-2.4c0-2.5,2.1-3.7,4.5-3.7c7.7,0,7.7-0.8,15.3-0.8c7.7,0,7.7-0.1,15.3-0.1
	c2.5,0,4.6-0.6,4.6-3c0-7.1-0.7-7.1-0.7-14.2c0-0.6-0.1-1.1-0.3-1.5l0,0c0-0.1-0.1-0.2-0.1-0.3c-0.6-1-1.7-1.2-3.5-1.2
	c-8.9,0-8.9-1.3-17.7-1.3c-8.9,0-8.9,1.3-17.8,1.3c-8.9,0-8.9-1.2-17.8-1.2c-2.4,0-3.7,1.7-3.7,4.3c0,9.7,0.4,9.7,0.4,19.5
	c0,9.7,0.2,9.7,0.2,19.5c0,9.8-0.9,9.8-0.9,19.5c0,9.5-3,10.4-0.1,19c0.1,0.2,0.1,0.4,0.2,0.6c6.3-1.8,13.2-4.8,20.1-6.9
	c7.1-2.1,14.3-3.9,20.8-3.8c7.4,0.2,14.1,3.6,20.5,5.9C341,84.1,337.9,82,337.9,79.1z"/>
<path fill="#96CE8E" stroke="#0C3534" stroke-width="1.3557" stroke-linecap="round" stroke-linejoin="round" stroke-miterlimit="10" d="
	M419.3,68.7c-0.5-0.4-1.1-0.8-1.8-0.9c-7.2-1.6-7.2-1.5-14.3-3.1c-2.5-0.6-3.9,1.2-4.3,3.9c-0.8,5.8-3.4,9.8-10.3,9.8
	c-6,0-8.3-2.8-9.1-7.3c-0.5-2.6-0.5-5.7-0.5-9.2c0-9.1-0.4-9.1-0.4-18.3c0-9.8,0.6-15.5,10-15.5c2.4,0,4.2,0.4,5.8,1.1
	c2.9,1.3,4.4,3.8,4.8,7.5c0.4,2.7,1.4,3.9,4.1,3.4c0.1,0,0.2,0,0.4-0.1c6.6-1.4,7.1-0.3,14-1.9c1.8-0.4,3.2-2.4,3.1-4.2
	c-0.2-3.7-1.3-8.5-3.6-13.2c-0.3-0.7-0.6-1.3-1-2c-2.4-4-6.4-7.2-12.1-9.6c-4.1-1.7-9-2.8-15.4-2.8c-6.8,0-12.3,0.8-16.5,2.7
	c-6,2.7-9.8,6.9-12,11.4c-3.1,6.1-3.7,12.7-3.7,16.4c0,7.9,0,7.9,0,15.8c0,7.9-0.1,7.9-0.1,15.8c0,3.9,0.7,11.2,4.3,17.7
	c1.1,1.9,2.3,3.7,4,5.3c6.1,0,12.1-0.8,17.8-1.9c5.8-1.1,11.5-2.5,17.2-4.3c6.1-1.9,13-4.5,19.9-5.6c0.7-2.8,1.4-5.9,1.5-8.2
	C420.8,70.5,420.2,69.4,419.3,68.7z"/>
<path fill="#96CE8E" stroke="#0C3534" stroke-width="1.3557" stroke-linecap="round" stroke-linejoin="round" stroke-miterlimit="10" d="
	M486,65c-0.2-0.6-0.6-0.9-0.1-1.3c3.7-2.7,7-6.2,8.5-11c1.2-3.9,1.4-8.7,1.4-13.9c0-5-0.9-9.3-2.1-13c-0.4-1.2-0.9-2.4-1.4-3.5
	c-2.4-5.3-5.9-9.5-11.7-11.8c-4.4-1.7-10.1-2.1-16.8-2.1c-6.9,0-6.9,0.6-13.9,0.6s-6.9-1.5-13.9-1.5c-2.3,0-3.7,2.4-3.7,4.7
	c0,8.5,0.2,8.5,0.2,16.9c0,8.5,0.2,8.5,0.2,17s-0.6,8.5-0.6,17c0,7.8-2.2,8.8-1.1,15.4c0.1,0.6,0.2,1.1,0.3,1.7
	c3.9,1.4,8.4,2.9,12.2,4.2c3.6,1.3,7.1,2.9,10.8,3.5c1.8-7.2-0.1-7.4-0.1-14.8c0-2.3,1.5-3.4,3.8-3.4c2.5,0,2.5-0.7,5.1-0.7
	c0.4,0,1.1,0.3,1.4,0.6c4.9,9.5,2.8,10.8,9.6,19.1c5.4-0.2,10.7-1.3,16.3-1.9c2.2-0.2,4.2,0.2,6.3-0.1C492,75.6,491.8,75.7,486,65z
	 M474.4,38.8c0,7.9-3.7,8.5-9.8,8.5c-3.2,0-3.2-0.7-6.5-0.7c-2.3,0-3.6-0.9-3.6-3.2c0-0.6,0-1,0-1.5c-0.1-3.3-0.6-3.8-0.6-7.9
	c0-2.3,1.9-3.5,4.2-3.5c3.2,0,3.2-0.6,6.5-0.6c2.1,0,3.9,0.1,5.3,0.6C472.8,31.5,474.4,33.6,474.4,38.8z"/>
<path fill="#96CE8E" stroke="#0C3534" stroke-width="1.3557" stroke-linecap="round" stroke-linejoin="round" stroke-miterlimit="10" d="
	M572.3,59.5c0-10.2,0.9-10.2,0.9-20.5c0-6-0.2-12.2-2.1-17.5c-0.9-2.6-2.3-5-4.1-7.2c-2-2.3-4.5-4.3-7.7-5.8
	c-4.3-1.9-10.2-2.3-17.5-2.3c-7.3,0-13,0.7-17.3,2.7c-6.2,2.8-10.2,7.3-12.1,12.6c-1.9,5.3-2,11.6-2,17.6c0,11.4,0.7,11.4,0.7,22.8
	c0,10.8-4.1,12.1-1.2,21.5c0.1,0.5,0.3,0.9,0.5,1.4c7.5-1.3,43.7-10.7,51.3-9.4c3.8,0.6,7.7,3.1,11.5,4.8
	C575.2,70,572.3,69.7,572.3,59.5z M551.4,44.4c0.4,6.1-3.2,10.4-9.3,10.4c-4.9,0-8.4-2.1-9.6-6.5c-0.3-1.1-0.5-2.2-0.5-3.5
	c0-7,9.7-14.1,9.7-14.1s2.5,1.8,4.9,4.5C549,37.7,551.2,41,551.4,44.4z"/>
<path fill="#96CE8E" stroke="#0C3534" stroke-width="1.3557" stroke-linecap="round" stroke-linejoin="round" stroke-miterlimit="10" d="
	M649.2,12.2c0-0.9-0.2-1.6-0.5-2.3c-0.6-1.3-1.6-2.1-3.3-2.1c-9.1,0-9.1,0.3-18.2,0.3c-9.1,0-9.1,0.5-18.2,0.5
	c-9.1,0-9.1-0.5-18.2-0.5c-2.4,0-3.3,1.6-3.3,4.1c0,9,0.2,9,0.2,17.9c0,9-1,9-1,18c0,9,0.9,9,0.9,18c0,8.2-3.6,9.6-1.9,16.1
	c0.2,0.6,0.3,1.3,0.6,2.1c7.1,1.1,15,1.2,22.7,1.1c3.5-8.4,0-8.8,0-17.9c0-2.5,1.9-3.2,4.3-3.2c10.5,0,10.5,0.1,20.9,0.1
	c2.5,0,4.3-2.1,4.3-4.5c0-7.1-0.5-7.1-0.5-14.2c0-0.3-0.1-0.5-0.1-0.7c-0.3-1.9-1.4-2.5-3.7-2.5c-10.5,0-10.5-0.3-20.9-0.3
	c-2.4,0-3.9-1.6-3.9-4c0-0.8-0.1-1.3-0.1-1.7c-0.1-0.6-0.2-1.2-0.2-2.4c0-2.5,1.8-4.3,4.2-4.3c8,0,8,0.9,16,0.9c8,0,8-0.9,16-0.9
	c2.5,0,4.5-0.8,4.5-3.2C650,19.3,649.2,19.3,649.2,12.2z"/>
<path fill="#96CE8E" stroke="#0C3534" stroke-width="1.3557" stroke-linecap="round" stroke-linejoin="round" stroke-miterlimit="10" d="
	M729.7,8.8c-0.8-0.5-1.7-0.9-2.7-0.9c-8.1,0-8.1,0.7-16.2,0.7c-8.1,0-8.1-0.7-16.2-0.7c-8.1,0-8.1,0.6-16.2,0.6
	c-8.1,0-8.1-0.7-16.2-0.7c-2.4,0-3.1,1.9-3.1,4.4c0,7.1-0.8,7.1-0.8,14.2c0,2.4,1.5,3.3,3.9,3.3c0.4,0,0.6,0,1,0
	c7.9,0.1,8.3,0.9,16.8,0.9c0.1,0,0.1,0,0.2,0c2.4,0,4.1,0.9,4.1,3.3c0,8.2-0.2,8.2-0.2,16.4c0,8.2,0.2,8.2,0.2,16.5
	c0,8.1-3.5,8.9-0.7,16.1c0.1,0.1,0.1,0.2,0.1,0.4c7,0.9,14.4,1.5,22.1,1.3c3.5-7.7-0.2-8.5-0.2-17c0-8.4,0.3-8.4,0.3-16.9
	c0-8.4-0.1-8.4-0.1-16.9c0-2.5,1.2-4.3,3.6-4.3c8.9,0,8.9,0.5,17.8,0.5c2.5,0,3.1-1.4,3.1-3.8c0-7.1,1.4-7.1,1.4-14.2
	C731.5,10.7,730.8,9.5,729.7,8.8z"/>
<path fill="#3386AA" d="M48.5,89.2c8.3,3.9,12.6,9.5,16.4,14.3c6.2,7.9,11,14.1,29.5,12c7.5-0.9,13.4-3.3,19.6-5.9
	c2.4-1,4.9-2,7.5-3c1.2-0.4,2.2-0.8,3-1.1c3.3-1.2,3.7-1.4,5.7-0.5c0.9,0.4,2.1,0.9,4.8,1.6c2.5,0.6,5,1.3,7.3,2
	c6,1.7,11.7,3.4,18.8,3.5c9.3,0.2,17.1-2.3,25.3-5c3.2-1,6.5-2.1,9.9-3c9.4-2.5,15.3,0.7,21.4,4.2c4.4,2.4,9,5,15.5,6.1
	c13.2,2.2,25.8,0.2,37.5-2.3c4.9-1,10.2-2.8,15.9-4.7c10.3-3.4,21-6.9,30.6-6.7c8.2,0.2,15.3,2.8,22.1,5.4
	c7.1,2.7,14.4,5.4,23.4,5.6c13.2,0.3,24.9-2.7,35.6-6c1.8-0.5,3.6-1.2,5.5-1.8c7.4-2.5,15.8-5.4,24.2-4.2c3.7,0.6,6.8,2.1,9.9,3.7
	c1.8,0.9,3.5,1.8,5.4,2.4c14.5,5.1,29.7,4.1,46.7,2.3c16.8-1.8,32.7-5.2,50.2-9.1c1.4-0.3,2.7-0.6,4-1c6-1.5,10.8-2.6,17.3-1.5
	c3.6,0.6,7.1,2.1,10.5,3.6c3,1.3,6,2.6,9,3.3c12.5,2.8,29.4,3.5,43.1,1.8c4.8-0.6,9.3-1.8,13.6-3c8.3-2.3,16.1-4.4,25.5-2.2
	c17.3,3.9,30.7,6,48,4.8c5.3-0.4,9.5-1.4,13.7-2.4c7.4-1.8,13.8-3.3,23.1-0.3c2.9,0.9,5.3,2,7.6,3.1c1.9,0.9,3.7,1.7,5.7,2.4
	c0-0.5,0.1-1,0.1-1.5v-7c-4.8-1.6-8.5-4-13.8-5.7c-14-4.5-21.4,1.8-36.3,2.8c-18,1.2-31.9-1.1-48.4-4.8c-14-3.2-24.8,3.6-38.6,5.2
	c-13.4,1.6-30.6,1-43.6-1.9c-6.6-1.5-13-5.9-19.4-6.9c-7.6-1.3-12.8,0.7-20.8,2.5c-16.6,3.7-33.1,7.3-50.3,9.1
	c-16.4,1.7-32.2,3-47.3-2.3c-5-1.8-9.3-5.2-15-6c-10.1-1.5-20.3,3.3-29.1,6c-11.6,3.6-23.2,6.3-36,6.1c-17.9-0.4-29.1-10.6-45.5-11
	c-14.7-0.3-32.4,8.4-46.2,11.3c-12.5,2.7-25,4.5-38,2.3c-16.3-2.7-21.2-14.3-36.4-10.3c-11.9,3.2-22.3,8.4-35.6,8.1
	c-10-0.2-17.3-3.4-26.4-5.6c-8.8-2.1-3.5-3.3-12.7,0c-9.3,3.4-16.7,7.7-27.4,9C63.5,110.5,68.8,90.3,48,80.5
	c-18-8.5-34.7-0.2-47.5,9C0.2,91.3,0,93.1,0,95v3C14.2,88,30.6,80.7,48.5,89.2z"/>
<path fill="#3386AA" d="M745,119.6c-8.2-2.6-13.8-1.3-20.9,0.4c-4.1,1-8.7,2.1-14.3,2.5c-17.8,1.2-31.5-0.9-49.2-4.9
	c-8.4-1.9-15.7,0.1-23.5,2.2c-4.5,1.2-9.1,2.5-14.2,3.1c-14.2,1.7-31.6,0.9-44.5-1.9c-3.4-0.8-6.6-2.2-9.8-3.6
	c-3.3-1.5-6.5-2.8-9.5-3.3c-5.7-1-9.9,0.1-15.6,1.5c-1.3,0.3-2.6,0.6-4.1,1c-17.6,4-33.6,7.4-50.6,9.2c-17.5,1.8-33.2,2.9-48.5-2.5
	c-2.1-0.7-4-1.7-5.9-2.6c-2.9-1.4-5.5-2.8-8.6-3.3c-7.4-1.1-14.9,1.5-22.3,4c-1.9,0.7-3.8,1.3-5.7,1.9c-11,3.4-23.1,6.5-36.8,6.2
	c-9.6-0.2-17.3-3.1-24.7-5.9c-6.8-2.6-13.2-5-20.8-5.1c-8.9-0.2-19.3,3.2-29.3,6.5c-5.8,1.9-11.2,3.7-16.3,4.8
	c-12.1,2.6-25.2,4.6-39,2.3c-7.2-1.2-12.3-4-16.8-6.5c-5.9-3.3-10.6-5.9-18.4-3.8c-3.3,0.9-6.6,1.9-9.7,3
	c-8.2,2.7-16.6,5.4-26.6,5.2c-7.6-0.2-13.5-1.9-19.8-3.7c-2.3-0.7-4.7-1.3-7.2-2c-3-0.7-4.5-1.4-5.4-1.8c-0.2-0.1-0.4-0.2-0.6-0.2
	c0,0.1-1,0.4-2.1,0.8c-0.8,0.3-1.8,0.7-3,1.1c-2.5,0.9-5,1.9-7.4,2.9c-6.2,2.6-12.6,5.3-20.7,6.2c-2.6,0.3-4.9,0.4-7.1,0.4
	c-15.2,0-20.5-6.8-26.1-14c-3.7-4.8-7.6-9.7-15-13.2c-15.9-7.5-30.9-1-44.1,8.2c3.3,13.7,13.9,23.7,26.5,23.7h706.1
	c9.4,0,17.8-5.6,22.8-14.1c-1.5-0.6-2.9-1.3-4.3-1.9C750,121.5,747.7,120.4,745,119.6z"/>
<path fill="#3386AA" d="M754.5,107.5c-2.2-1-4.6-2.1-7.3-3c-8.6-2.7-14.6-1.3-21.7,0.4c-4,1-8.6,2.1-14.1,2.4
	c-17.6,1.2-31.2-0.9-48.8-4.8c-8.7-2-16.2,0.1-24.1,2.2c-4.4,1.2-9,2.5-14,3c-14,1.7-31.3,0.9-44-1.9c-3.3-0.7-6.4-2.1-9.5-3.5
	c-3.4-1.5-6.6-2.9-9.8-3.4c-6-1-10.5,0.1-16.2,1.5c-1.3,0.3-2.6,0.6-4.1,1c-17.6,4-33.5,7.4-50.5,9.2c-17.3,1.8-32.9,2.9-47.9-2.4
	c-2-0.7-3.9-1.7-5.7-2.6c-3-1.5-5.7-2.9-9-3.4c-7.7-1.1-15.4,1.5-22.9,4.1c-1.9,0.7-3.8,1.3-5.6,1.9c-10.9,3.4-23,6.4-36.4,6.1
	c-9.4-0.2-17-3-24.3-5.8c-6.9-2.6-13.4-5-21.2-5.2c-9.2-0.3-19.6,3.2-29.7,6.6c-5.7,1.9-11.1,3.7-16.2,4.7
	c-11.9,2.5-24.9,4.6-38.5,2.3c-7-1.2-12-3.9-16.4-6.4c-6.2-3.4-11.1-6.1-19.4-3.9c-3.3,0.9-6.6,2-9.8,3c-8.1,2.6-16.4,5.3-26.2,5.1
	c-7.4-0.2-13.2-1.8-19.5-3.6c-2.3-0.7-4.7-1.4-7.2-2c-2.9-0.7-4.4-1.3-5.2-1.7c-1-0.4-1-0.4-3.7,0.6c-0.8,0.3-1.8,0.7-3,1.1
	c-2.6,0.9-5,2-7.4,3c-6.4,2.7-12.4,5.2-20.3,6.1c-2.5,0.3-4.8,0.4-6.8,0.4c-14.6,0-19.7-6.6-25.1-13.4c-3.8-4.9-7.8-9.9-15.5-13.6
	C30,83.4,13.9,91.2,0,101.4v4.6c0,1,0.1,1.9,0.1,2.9C14,99.5,30,93.5,47.4,101.7c8.6,4,13,9.7,16.9,14.7
	c5.9,7.5,10.6,13.5,28.3,11.5c7.3-0.8,13.1-3.2,19.2-5.8c2.4-1,4.9-2.1,7.6-3c1.2-0.4,2.2-0.8,2.9-1.1c3.3-1.2,4.2-1.6,6.7-0.5
	c0.8,0.3,2,0.9,4.6,1.5c2.6,0.6,5,1.3,7.4,2c5.9,1.7,11.6,3.3,18.4,3.5c9.1,0.2,16.7-2.3,24.8-4.9c3.2-1,6.6-2.1,10-3.1
	c9.9-2.6,16,0.7,22.4,4.3c4.3,2.4,8.8,4.9,15.1,5.9c12.9,2.2,25.4,0.2,37-2.3c4.8-1,10.1-2.8,15.7-4.6c10.4-3.4,21.2-7,31.1-6.8
	c8.5,0.2,15.6,2.9,22.6,5.5c7,2.6,14.2,5.3,22.9,5.5c12.9,0.3,24.5-2.7,35.1-6c1.8-0.5,3.6-1.2,5.5-1.8c7.6-2.6,16.1-5.5,24.8-4.2
	c3.9,0.6,7.2,2.2,10.3,3.8c1.8,0.9,3.5,1.8,5.2,2.4c14.2,5,29.3,4,46.1,2.2c16.8-1.8,32.6-5.2,50-9.1c1.4-0.3,2.7-0.6,4-0.9
	c5.9-1.4,11-2.7,17.8-1.6c3.7,0.6,7.3,2.2,10.8,3.7c3,1.3,5.9,2.6,8.8,3.2c12.3,2.7,29.1,3.4,42.7,1.8c4.7-0.6,9.1-1.8,13.4-2.9
	c8.1-2.2,16.4-4.5,26.1-2.3c17.2,3.9,30.5,5.9,47.6,4.8c5.2-0.4,9.4-1.4,13.4-2.3c7.3-1.8,14.2-3.4,23.8-0.3c3,0.9,5.4,2.1,7.8,3.2
	c1.5,0.7,2.9,1.3,4.4,1.9c1.1-2.9,1.9-6,2.2-9.2C758.7,109.4,756.5,108.5,754.5,107.5z"/>
</svg>
